# WaveFront *.obj file (generated by CINEMA 4D)

v -8 -8 -8
v -8 8 -8
v -8 -8 8
v -8 8 8
v 8 -8 8
v 8 8 8
v 8 -8 -8
v 8 8 -8
# 8 vertices

vn -1 0 0
vn 0 0 1
vn 1 0 0
vn 0 0 -1
vn 0 1 0
vn 0 -1 0
# 6 normals

vt 0 1 0
vt 0.5 1 0
vt 0.5 0.5 0
vt 1 0.5 0
vt 0 0.5 0
vt 1 1 0
# 6 texture coordinates

o basic_cubeRIGHTUV.obj
usemtl Mat
f 4/1/1 2/2/1 1/3/1
f 6/1/2 4/2/2 3/3/2
f 8/1/3 6/2/3 5/3/3
f 2/1/4 8/2/4 7/3/4
f 6/4/5 8/3/5 2/2/5
f 3/4/6 1/3/6 7/2/6
f 3/5/1 4/1/1 1/3/1
f 5/5/2 6/1/2 3/3/2
f 7/5/3 8/1/3 5/3/3
f 1/5/4 2/1/4 7/3/4
f 4/6/5 6/4/5 2/2/5
f 5/6/6 3/4/6 7/2/6

